<svg width="29" height="29" viewBox="0 0 29 29" fill="none" xmlns="http://www.w3.org/2000/svg">
<path d="M12.3225 1.36955C12.9413 0.843517 13.727 0.554688 14.5391 0.554688C15.3513 0.554688 16.137 0.843517 16.7558 1.36955L27.0229 10.0961C27.4008 10.4174 27.7044 10.8169 27.9126 11.2671C28.1208 11.7173 28.2286 12.2074 28.2287 12.7034V26.3508C28.2287 27.049 27.9513 27.7187 27.4576 28.2124C26.9639 28.7061 26.2943 28.9834 25.5961 28.9834H21.3839C20.6857 28.9834 20.0161 28.7061 19.5224 28.2124C19.0287 27.7187 18.7513 27.049 18.7513 26.3508V19.5061C18.7513 18.9491 18.5307 18.4149 18.1378 18.0202C17.7449 17.6255 17.2116 17.4025 16.6547 17.4H12.4225C11.8658 17.4028 11.3328 17.6259 10.9401 18.0206C10.5474 18.4152 10.327 18.9493 10.327 19.5061V26.3508C10.327 26.6966 10.2589 27.0389 10.1266 27.3583C9.99428 27.6777 9.80036 27.9679 9.5559 28.2124C9.31144 28.4568 9.02123 28.6507 8.70183 28.783C8.38242 28.9153 8.04009 28.9834 7.69437 28.9834H3.48221C2.784 28.9834 2.11439 28.7061 1.62068 28.2124C1.12697 27.7187 0.849609 27.049 0.849609 26.3508V12.7034C0.849637 12.2074 0.957481 11.7173 1.16567 11.2671C1.37387 10.8169 1.67743 10.4174 2.05534 10.0961L12.3225 1.36955Z" fill="white" fill-opacity="0.51"/>
</svg>
