<svg width="156" height="175" viewBox="0 0 156 175" fill="none" xmlns="http://www.w3.org/2000/svg">
<path d="M74.3147 164.708V7.90333C74.3147 4.42796 70.5593 2.24989 67.5427 3.97564L22.8907 29.5201C21.2208 30.4754 20.1904 32.2519 20.1904 34.1758V42.073C20.1904 44.0084 21.2331 45.7937 22.9188 46.7446L36.4787 54.3939C38.1644 55.3448 39.207 57.1301 39.207 59.0655V150.825C39.207 152.752 40.2415 154.532 41.9166 155.486L66.2967 169.369C69.8725 171.405 74.3147 168.823 74.3147 164.708Z" fill="#FABF3D"/>
<path d="M81.6289 72.5889V164.895C81.6289 169.022 86.0945 171.603 89.6703 169.543L152.571 133.302C154.233 132.344 155.257 130.572 155.257 128.654V110.028C155.257 106.273 151.499 103.681 147.989 105.014L124.004 114.122C120.495 115.455 116.737 112.862 116.737 109.108V78.9871C116.737 77.0882 115.732 75.3308 114.097 74.3664L96.3514 63.906C94.6429 62.8989 92.5182 62.9167 90.8269 63.9522L84.1919 68.0145C82.5997 68.9893 81.6289 70.722 81.6289 72.5889Z" fill="#FABF3D"/>
<path d="M81.6289 44.0717V10.4391C81.6289 5.94354 86.4879 3.12724 90.3887 5.36186L152.315 40.8363C154.135 41.8789 155.257 43.816 155.257 45.9135V72.5825C155.257 74.5199 154.298 76.3317 152.696 77.4211L146.148 81.8737C144.269 83.1519 141.819 83.2258 139.865 82.0631L84.4873 49.0996C82.7149 48.0446 81.6289 46.1343 81.6289 44.0717Z" fill="#FABF3D" stroke="#FABF3D" stroke-width="0.48761"/>
<path d="M0.686523 127.956V52.8785C0.686523 48.3795 5.55228 45.5636 9.45315 47.8052L30.4201 59.8535C32.2363 60.8971 33.3561 62.8321 33.3561 64.9268V132.214C33.3561 134.339 32.204 136.297 30.3465 137.329L23.145 141.33C21.317 142.346 19.086 142.309 17.2928 141.233L3.52734 132.973C1.76491 131.916 0.686523 130.011 0.686523 127.956Z" fill="white"/>
<path d="M122.589 98.3902V89.5639C122.589 85.0394 127.504 82.2268 131.405 84.5194L140.231 89.7067C144.4 92.1566 143.967 98.318 139.497 100.161L130.67 103.8C126.819 105.388 122.589 102.556 122.589 98.3902Z" fill="white" stroke="white" stroke-width="0.48761"/>
</svg>
