<svg width="35" height="35" viewBox="0 0 35 35" fill="none" xmlns="http://www.w3.org/2000/svg">
<path fill-rule="evenodd" clip-rule="evenodd" d="M6.90374 6.57815C6.59766 7.17908 6.59766 7.96535 6.59766 9.5379V10.4L31.8566 8.10295C31.8299 7.41777 31.7583 6.96005 31.5646 6.57815C31.2953 6.04979 30.8658 5.62022 30.3374 5.35101C29.7365 5.04492 28.9502 5.04492 27.3777 5.04492H11.0906C9.51809 5.04492 8.73182 5.04492 8.13088 5.35101C7.60253 5.62022 7.17296 6.04979 6.90374 6.57815ZM31.8706 10.9223L25.0399 11.5429L28.5585 30.3109C29.3897 30.2926 29.9106 30.2294 30.3374 30.0118C30.8658 29.7426 31.2953 29.313 31.5646 28.7847C31.8706 28.1837 31.8706 27.3975 31.8706 25.8249V10.9223ZM25.704 30.3179L22.2304 11.7984L6.59766 13.2193V25.8249C6.59766 27.3975 6.59766 28.1837 6.90374 28.7847C7.17296 29.313 7.60253 29.7426 8.13088 30.0118C8.73182 30.3179 9.51809 30.3179 11.0906 30.3179H25.704ZM19.9362 21.9357C19.9362 24.9656 16.9315 27.0942 15.6215 27.8791C15.4404 27.9877 15.2332 28.0451 15.022 28.0451C14.8108 28.0451 14.6036 27.9877 14.4225 27.8791C13.1125 27.0942 10.1078 24.9656 10.1078 21.9343C10.1078 18.9619 12.4891 16.9794 15.022 16.9794C17.6434 16.9794 19.9362 18.9619 19.9362 21.9357Z" fill="white" fill-opacity="0.51"/>
<path d="M15.0203 23.2983C15.7957 23.2983 16.4243 22.6697 16.4243 21.8943C16.4243 21.1189 15.7957 20.4902 15.0203 20.4902C14.2448 20.4902 13.6162 21.1189 13.6162 21.8943C13.6162 22.6697 14.2448 23.2983 15.0203 23.2983Z" fill="white" fill-opacity="0.51"/>
</svg>
