<svg width="22" height="22" viewBox="0 0 22 22" fill="none" xmlns="http://www.w3.org/2000/svg">
<g clip-path="url(#clip0_864_3794)">
<path d="M19.2263 6.45331C19.2263 8.15721 17.8402 9.54329 16.1363 9.54329C14.4324 9.54329 13.0463 8.15721 13.0463 6.45331C13.0463 4.7494 14.4324 3.36333 16.1363 3.36333C17.8402 3.36333 19.2263 4.7494 19.2263 6.45331ZM17.4606 11.1236C17.0192 11.2384 16.5777 11.309 16.1363 11.309C14.8492 11.3067 13.6155 10.7943 12.7054 9.88422C11.7953 8.97411 11.283 7.7404 11.2806 6.45331C11.2806 5.15552 11.7927 3.98132 12.6049 3.1073C12.4447 2.9109 12.2427 2.75272 12.0136 2.64428C11.7845 2.53584 11.5341 2.47988 11.2806 2.48047C10.3095 2.48047 9.51493 3.27504 9.51493 4.24618V4.50221C6.89286 5.27912 5.10067 7.6893 5.10067 10.4261V15.7233L3.33496 17.489V18.3718H19.2263V17.489L17.4606 15.7233V11.1236ZM11.2806 21.0204C12.2606 21.0204 13.0463 20.2346 13.0463 19.2547H9.51493C9.51493 19.723 9.70096 20.1721 10.0321 20.5032C10.3632 20.8343 10.8123 21.0204 11.2806 21.0204Z" fill="white"/>
<circle cx="15.9162" cy="6.67398" r="3.3107" fill="#F5D949"/>
</g>
<defs>
<clipPath id="clip0_864_3794">
<rect width="21.1885" height="21.1885" fill="white" transform="translate(0.686523 0.714844)"/>
</clipPath>
</defs>
</svg>
