<svg width="34" height="35" viewBox="0 0 34 35" fill="none" xmlns="http://www.w3.org/2000/svg">
<path fill-rule="evenodd" clip-rule="evenodd" d="M11.3582 10.6611C11.3582 9.17163 11.9499 7.74312 13.0031 6.68987C14.0564 5.63663 15.4849 5.04492 16.9744 5.04492C18.4639 5.04492 19.8924 5.63663 20.9456 6.68987C21.9989 7.74312 22.5906 9.17163 22.5906 10.6611C22.5906 12.1507 21.9989 13.5792 20.9456 14.6324C19.8924 15.6857 18.4639 16.2774 16.9744 16.2774C15.4849 16.2774 14.0564 15.6857 13.0031 14.6324C11.9499 13.5792 11.3582 12.1507 11.3582 10.6611ZM11.3582 19.0855C9.49627 19.0855 7.71064 19.8251 6.39408 21.1417C5.07752 22.4582 4.33789 24.2438 4.33789 26.1057C4.33789 27.2229 4.78167 28.2943 5.5716 29.0842C6.36154 29.8741 7.43292 30.3179 8.55005 30.3179H25.3987C26.5158 30.3179 27.5872 29.8741 28.3772 29.0842C29.1671 28.2943 29.6109 27.2229 29.6109 26.1057C29.6109 24.2438 28.8712 22.4582 27.5547 21.1417C26.2381 19.8251 24.4525 19.0855 22.5906 19.0855H11.3582Z" fill="white" fill-opacity="0.51"/>
</svg>
