<svg width="26" height="26" viewBox="0 0 26 26" fill="none" xmlns="http://www.w3.org/2000/svg">
<g clip-path="url(#clip0_926_2449)">
<path fill-rule="evenodd" clip-rule="evenodd" d="M17.5988 1.35375C17.5988 0.994713 17.7414 0.650382 17.9953 0.396504C18.2491 0.142627 18.5935 0 18.9525 0L22.1113 0C23.8549 0 25.27 1.41512 25.27 3.15875V6.3175C25.27 6.67654 25.1274 7.02087 24.8735 7.27475C24.6196 7.52862 24.2753 7.67125 23.9163 7.67125C23.5572 7.67125 23.2129 7.52862 22.959 7.27475C22.7051 7.02087 22.5625 6.67654 22.5625 6.3175V3.15875C22.5625 3.03907 22.515 2.92429 22.4303 2.83967C22.3457 2.75504 22.2309 2.7075 22.1113 2.7075H18.9525C18.5935 2.7075 18.2491 2.56487 17.9953 2.311C17.7414 2.05712 17.5988 1.71279 17.5988 1.35375ZM0 12.635C0 12.276 0.142627 11.9316 0.396504 11.6778C0.650382 11.4239 0.994713 11.2813 1.35375 11.2813H23.9163C24.2753 11.2813 24.6196 11.4239 24.8735 11.6778C25.1274 11.9316 25.27 12.276 25.27 12.635C25.27 12.994 25.1274 13.3384 24.8735 13.5922C24.6196 13.8461 24.2753 13.9888 23.9163 13.9888H1.35375C0.994713 13.9888 0.650382 13.8461 0.396504 13.5922C0.142627 13.3384 0 12.994 0 12.635ZM2.7075 3.15875C2.7075 3.03907 2.75504 2.92429 2.83967 2.83967C2.92429 2.75504 3.03907 2.7075 3.15875 2.7075H6.3175C6.67654 2.7075 7.02087 2.56487 7.27475 2.311C7.52862 2.05712 7.67125 1.71279 7.67125 1.35375C7.67125 0.994713 7.52862 0.650382 7.27475 0.396504C7.02087 0.142627 6.67654 0 6.3175 0L3.15875 0C2.321 0 1.51756 0.332796 0.925176 0.925176C0.332796 1.51756 0 2.321 0 3.15875L0 6.3175C0 6.67654 0.142627 7.02087 0.396504 7.27475C0.650382 7.52862 0.994713 7.67125 1.35375 7.67125C1.71279 7.67125 2.05712 7.52862 2.311 7.27475C2.56487 7.02087 2.7075 6.67654 2.7075 6.3175V3.15875ZM23.9163 17.5988C24.2753 17.5988 24.6196 17.7414 24.8735 17.9953C25.1274 18.2491 25.27 18.5935 25.27 18.9525V22.1113C25.27 22.949 24.9372 23.7524 24.3448 24.3448C23.7524 24.9372 22.949 25.27 22.1113 25.27H18.9525C18.5935 25.27 18.2491 25.1274 17.9953 24.8735C17.7414 24.6196 17.5988 24.2753 17.5988 23.9163C17.5988 23.5572 17.7414 23.2129 17.9953 22.959C18.2491 22.7051 18.5935 22.5625 18.9525 22.5625H22.1113C22.2309 22.5625 22.3457 22.515 22.4303 22.4303C22.515 22.3457 22.5625 22.2309 22.5625 22.1113V18.9525C22.5625 18.5935 22.7051 18.2491 22.959 17.9953C23.2129 17.7414 23.5572 17.5988 23.9163 17.5988ZM2.7075 18.9525C2.7075 18.5935 2.56487 18.2491 2.311 17.9953C2.05712 17.7414 1.71279 17.5988 1.35375 17.5988C0.994713 17.5988 0.650382 17.7414 0.396504 17.9953C0.142627 18.2491 0 18.5935 0 18.9525L0 22.1113C0 23.8549 1.41512 25.27 3.15875 25.27H6.3175C6.67654 25.27 7.02087 25.1274 7.27475 24.8735C7.52862 24.6196 7.67125 24.2753 7.67125 23.9163C7.67125 23.5572 7.52862 23.2129 7.27475 22.959C7.02087 22.7051 6.67654 22.5625 6.3175 22.5625H3.15875C3.03907 22.5625 2.92429 22.515 2.83967 22.4303C2.75504 22.3457 2.7075 22.2309 2.7075 22.1113V18.9525Z" fill="#8B8B88"/>
</g>
<defs>
<clipPath id="clip0_926_2449">
<rect width="25.27" height="25.27" fill="white"/>
</clipPath>
</defs>
</svg>
