<svg width="35" height="35" viewBox="0 0 35 35" fill="none" xmlns="http://www.w3.org/2000/svg">
<path d="M7.11939 7.67662H28.1802C28.4262 7.67656 28.672 7.69216 28.916 7.72335C28.8333 7.14271 28.6339 6.58484 28.3297 6.08337C28.0256 5.58189 27.623 5.1472 27.1463 4.80551C26.6696 4.46382 26.1287 4.2222 25.5561 4.09522C24.9835 3.96824 24.3911 3.95852 23.8147 4.06667L6.49415 7.02374H6.4744C5.38719 7.23165 4.42036 7.84677 3.77138 8.74349C4.74912 8.04803 5.91954 7.67507 7.11939 7.67662ZM28.1802 9.25619H7.11939C6.00263 9.2574 4.93196 9.70158 4.14229 10.4912C3.35262 11.2809 2.90845 12.3516 2.90723 13.4683V26.1048C2.90845 27.2216 3.35262 28.2923 4.14229 29.0819C4.93196 29.8716 6.00263 30.3158 7.11939 30.317H28.1802C29.297 30.3158 30.3676 29.8716 31.1573 29.0819C31.947 28.2923 32.3911 27.2216 32.3924 26.1048V13.4683C32.3911 12.3516 31.947 11.2809 31.1573 10.4912C30.3676 9.70158 29.297 9.2574 28.1802 9.25619ZM25.054 21.8927C24.6374 21.8927 24.2303 21.7692 23.8839 21.5377C23.5376 21.3063 23.2676 20.9774 23.1082 20.5926C22.9488 20.2077 22.9071 19.7843 22.9884 19.3757C23.0696 18.9672 23.2702 18.5919 23.5648 18.2974C23.8593 18.0028 24.2346 17.8022 24.6431 17.721C25.0517 17.6397 25.4751 17.6814 25.86 17.8408C26.2448 18.0002 26.5737 18.2702 26.8051 18.6165C27.0366 18.9629 27.1601 19.37 27.1601 19.7866C27.1601 20.3452 26.9382 20.8808 26.5432 21.2758C26.1482 21.6708 25.6126 21.8927 25.054 21.8927Z" fill="white" fill-opacity="0.51"/>
</svg>
